<svg xmlns="http://www.w3.org/2000/svg" width="660" height="400" viewBox="0 0 660 400">
  <defs>
    <linearGradient id="field" x1="0" y1="0" x2="1" y2="1">
      <stop offset="0" stop-color="#F2F7FA"/>
      <stop offset="1" stop-color="#DCE8EF"/>
    </linearGradient>
    <radialGradient id="halo" cx="50%" cy="50%" r="50%">
      <stop offset="0" stop-color="#2563EB" stop-opacity=".16"/>
      <stop offset="1" stop-color="#2563EB" stop-opacity="0"/>
    </radialGradient>
  </defs>
  <rect width="660" height="400" fill="url(#field)"/>
  <ellipse cx="330" cy="204" rx="230" ry="172" fill="url(#halo)"/>
  <g fill="none" stroke="#2563EB" stroke-linecap="round">
    <path d="M-28 310 C118 176 224 128 342 126 S562 196 688 60" opacity=".19" stroke-width="2"/>
    <path d="M-12 348 C152 214 250 184 356 182 S558 234 674 126" opacity=".11" stroke-width="1.5"/>
    <path d="M86 -30 C158 70 194 120 256 152" opacity=".16" stroke-width="2"/>
    <path d="M570 430 C518 344 486 302 426 270" opacity=".16" stroke-width="2"/>
  </g>
  <g fill="#128C91" opacity=".22">
    <circle cx="28" cy="286" r="5"/><circle cx="116" cy="194" r="4"/>
    <circle cx="544" cy="164" r="4"/><circle cx="626" cy="84" r="5"/>
  </g>
  <g transform="translate(276 144) scale(.105)" fill="#2563EB" opacity=".09">
    <path d="M520 515 L348 286 M520 515 L684 286 M520 515 L520 202 M520 515 L252 500 M520 515 L270 657 M520 515 L530 775" stroke="#2563EB" stroke-width="72" stroke-linecap="round"/>
    <circle cx="520" cy="515" r="148"/><circle cx="348" cy="286" r="92"/><circle cx="684" cy="286" r="92"/>
    <rect x="472" y="112" width="96" height="180" rx="48"/><circle cx="252" cy="500" r="66"/>
    <circle cx="270" cy="657" r="62"/><circle cx="530" cy="775" r="61"/>
  </g>
  <rect x="18" y="18" width="624" height="364" rx="22" fill="none" stroke="#2563EB" stroke-opacity=".10"/>
</svg>
